<svg width="227" height="88" viewBox="0 0 227 88" fill="none" xmlns="http://www.w3.org/2000/svg">
<path fill-rule="evenodd" clip-rule="evenodd" d="M226.807 27.6147C227.44 25.9503 226.427 24.67 225.034 23.6458C223.641 22.4935 221.995 23.1336 220.475 23.6458C219.336 24.0299 218.069 24.542 217.056 25.0541C210.218 29.1511 204.139 33.6322 198.44 38.6254C195.908 40.93 193.122 42.9785 190.336 45.1551C189.576 45.7952 188.563 46.0513 187.423 46.6915C187.296 46.0513 187.17 45.6672 187.17 45.4112C187.676 40.546 188.309 35.8087 188.943 30.9435C188.943 30.6874 189.069 30.4314 189.069 30.1754C188.943 27.7427 185.523 26.3344 182.737 27.4867C178.432 29.2792 174.886 31.8398 171.467 34.5285C167.161 38.1133 162.982 41.6982 158.803 45.4112C157.41 46.5634 155.89 47.4596 153.484 48.4839C154.624 43.7467 155.637 39.5217 156.65 35.2966C156.903 34.1443 156.777 32.864 156.903 31.5837C157.03 29.4071 155.764 27.9988 153.358 27.1026C151.331 27.2306 149.558 27.8708 147.912 28.767C141.707 32.48 135.882 36.3209 130.943 41.058C127.144 44.6429 123.091 47.9718 118.912 51.3006C118.279 51.8127 117.519 52.837 116 52.4529C115.873 52.1968 115.366 51.8127 115.493 51.5567C116.633 48.2278 117.013 45.027 116.126 41.6982C116 41.1861 116.253 40.674 116.38 40.2899C117.519 36.705 116.506 33.3762 114.987 30.0474C114.1 28.1269 111.441 27.2306 108.781 27.6147C103.463 28.2549 99.0303 30.3034 95.3578 33.2481C90.9255 36.705 86.8731 40.4179 82.6941 44.0028C80.1613 46.1793 77.8818 48.3559 75.4757 50.5324C74.336 51.5567 73.1963 52.5809 71.4234 53.3491C70.6636 51.6847 71.2967 50.4043 71.55 49.124C72.3098 45.6672 72.943 42.2104 73.5762 38.7535C73.9561 36.705 72.8163 34.9125 71.6766 33.1201C71.0434 32.0958 69.6504 31.7117 68.3841 32.2238C66.8644 32.864 65.2181 33.2481 63.9518 34.4004C62.5588 35.6807 60.7859 36.4489 59.1396 37.4732C58.633 37.7292 57.9998 37.9853 57.7465 38.3694C56.2269 40.802 53.4409 42.3383 51.4147 44.3868C49.2618 46.4353 46.7291 48.0998 44.5763 50.1483C43.0567 51.5566 41.537 52.965 39.8907 54.3734C39.3842 54.7575 38.8776 55.3976 37.6113 55.0135C37.4846 53.4772 37.358 51.9407 37.2314 50.4043C37.1047 48.6119 37.2313 46.9475 36.8514 45.1551C36.3448 42.9785 35.4584 40.802 32.5458 39.3937C31.9126 39.6497 31.0261 39.9058 30.5195 40.2899C27.9868 41.8263 25.5807 43.4906 23.048 45.027C21.2751 46.1793 19.3755 47.0755 17.7292 48.2278C12.2838 52.3248 6.83842 56.4219 1.39302 60.5189C0.886468 60.903 0.506549 61.5431 0 62.1833C1.13973 63.0795 2.27948 63.9757 3.41922 65C5.69869 62.5674 8.10478 60.6469 10.7642 58.8545C14.6899 56.1658 18.9955 53.7332 22.2881 50.5324C24.8209 47.9718 28.62 47.3316 31.6593 45.7952C32.4191 49.1241 33.179 52.3248 34.0654 55.5256C34.8253 58.0863 36.3449 59.6227 39.2575 61.159C40.144 60.3909 41.0305 59.4946 42.0436 58.7264C43.3099 57.7022 44.8296 57.062 45.2095 55.5256C45.3361 55.2696 45.8427 54.7575 46.096 54.7575C47.7422 54.6294 47.9955 53.6052 48.7553 52.837C49.1352 52.3249 49.7684 51.8127 50.4016 51.5567C51.5413 51.0445 52.3011 50.2763 52.9343 49.3801C53.1876 48.868 53.9474 48.4839 54.454 47.9718C58.5064 45.1551 62.4321 42.2104 66.4845 39.3937C66.8644 39.1376 67.4976 38.8815 68.1308 38.6254C68.8906 40.5459 68.3841 42.0823 68.0042 43.6187C67.2444 47.0755 65.978 50.4043 66.3579 53.9892C66.6112 56.2938 68.2574 58.0863 70.6635 58.9825C72.943 59.8787 74.4627 58.0863 75.8557 56.934C76.6155 56.4219 77.2487 55.9097 77.8819 55.2695C81.3011 52.0687 84.7203 48.996 87.8862 45.7952C93.4583 40.2899 100.677 36.4489 108.401 32.9921C109.541 32.4799 110.807 32.2239 112.201 32.9921C112.327 33.3762 112.58 33.8883 112.58 34.4004C112.58 39.6497 112.074 44.899 110.681 50.0203C110.048 52.3248 110.428 54.2453 111.947 56.0378C112.454 56.806 113.087 57.5742 113.594 58.2143C120.305 57.7022 121.572 57.062 125.244 53.2211C125.624 52.837 126.131 52.4529 126.637 52.1968C128.917 51.0445 130.31 49.3801 131.956 47.9718C134.109 46.0513 135.755 43.6187 138.794 42.2104C139.301 41.9543 139.807 41.5702 140.061 41.058C140.947 39.3936 143.1 38.4974 144.746 37.3451C146.519 36.1928 148.165 35.1686 150.065 34.1443C150.445 33.8882 150.952 33.8883 151.838 33.6322C152.724 35.6807 151.965 37.3452 151.458 39.0096C150.445 42.0823 149.432 45.2831 148.419 48.4839C147.786 50.4043 147.912 52.1968 149.432 53.8612C149.938 54.3733 150.951 54.8855 151.711 55.0135C154.371 55.5257 156.524 54.6294 158.296 53.2211C161.336 50.7885 163.869 48.0998 167.414 46.0513C167.921 45.7953 168.301 45.2831 168.554 44.899C169.187 44.1308 169.82 43.6187 170.834 43.1065C171.847 42.5944 172.733 41.6982 173.62 41.058C176.279 38.8815 178.812 36.5769 181.471 34.4004C181.978 34.0163 182.864 34.0163 183.751 33.6322C183.877 34.4004 184.004 34.9125 184.004 35.4246C183.624 38.2413 183.371 41.1861 182.864 44.0028C182.484 46.1793 182.864 48.2278 184.004 50.1483C184.637 51.3006 187.043 52.3248 188.436 51.9407C191.475 51.0445 194.515 50.4043 196.668 48.2278C198.694 46.3073 200.593 44.2588 202.746 42.4664C204.899 40.6739 207.432 39.0095 209.711 37.2171C211.991 35.4247 214.017 33.5042 216.296 31.8397C217.563 30.8155 219.209 29.9193 221.488 30.4314C219.969 34.5284 218.576 38.4974 217.056 42.3384C216.55 43.7467 216.676 45.027 217.816 46.1793C218.829 47.2036 220.222 47.3316 221.995 47.0756C222.628 46.1793 223.135 45.1551 223.895 44.1308C225.541 42.2104 225.794 40.1618 224.908 38.1133C224.274 36.705 224.401 35.5527 225.034 34.1443C225.414 31.7117 226.047 29.6632 226.807 27.6147Z" fill="#DBDFFF"/>
<path d="M85.2031 18.0713C85.2031 15.0337 87.6656 12.5713 90.7031 12.5713H129.989C133.026 12.5713 135.489 15.0337 135.489 18.0713V69.9284C135.489 72.966 133.026 75.4284 129.989 75.4284H90.7031C87.6656 75.4284 85.2031 72.966 85.2031 69.9284V18.0713Z" fill="#F7D9FF"/>
<path d="M95.037 30.1993L93.3979 28.4901C93.0212 28.0972 92.4043 28.0972 92.0276 28.4901C91.6601 28.8733 91.6601 29.4866 92.0276 29.8699L94.3545 32.2962C94.7312 32.6891 95.348 32.6891 95.7248 32.2962L101.614 26.1549C101.982 25.7717 101.982 25.1584 101.614 24.7751C101.238 24.3823 100.621 24.3823 100.244 24.7749L95.037 30.1993Z" fill="#E372FF"/>
<path fill-rule="evenodd" clip-rule="evenodd" d="M102.083 24.3259C102.691 24.9602 102.691 25.9696 102.083 26.6039L96.1934 32.7452C95.5613 33.4044 94.5187 33.4044 93.8866 32.7452L91.5597 30.3189C90.9514 29.6846 90.9514 28.6752 91.5597 28.0409C92.1918 27.3817 93.2344 27.3817 93.8666 28.0409L95.0376 29.262L99.7764 24.3257C100.409 23.6668 101.451 23.6668 102.083 24.3259ZM100.245 24.7748C100.621 24.3822 101.238 24.3822 101.615 24.775C101.982 25.1583 101.982 25.7716 101.615 26.1548L95.7251 32.2962C95.3484 32.689 94.7316 32.689 94.3549 32.2962L92.028 29.8698C91.6605 29.4865 91.6605 28.8732 92.028 28.49C92.4047 28.0971 93.0216 28.0971 93.3983 28.49L95.0374 30.1992L100.245 24.7748Z" fill="#E372FF"/>
<path d="M107.752 28.3736C107.752 27.1209 108.767 26.1055 110.02 26.1055L127.321 26.1055C128.574 26.1055 129.59 27.1209 129.59 28.3736C129.59 29.6262 128.574 30.6417 127.321 30.6417L110.02 30.6417C108.767 30.6417 107.752 29.6262 107.752 28.3736Z" fill="#E372FF"/>
<path d="M95.037 45.8931L93.3979 44.1839C93.0212 43.7911 92.4043 43.7911 92.0276 44.1839C91.6601 44.5672 91.6601 45.1805 92.0276 45.5637L94.3545 47.9901C94.7312 48.3829 95.348 48.3829 95.7248 47.9901L101.614 41.8488C101.982 41.4655 101.982 40.8522 101.614 40.4689C101.238 40.0762 100.621 40.0761 100.244 40.4688L95.037 45.8931Z" fill="#E372FF"/>
<path fill-rule="evenodd" clip-rule="evenodd" d="M102.083 40.0198C102.691 40.654 102.691 41.6635 102.083 42.2978L96.1934 48.4391C95.5613 49.0982 94.5187 49.0982 93.8866 48.4391L91.5597 46.0127C90.9514 45.3785 90.9514 44.369 91.5597 43.7347C92.1918 43.0756 93.2344 43.0756 93.8666 43.7347L95.0376 44.9558L99.7764 40.0195C100.409 39.3606 101.451 39.3607 102.083 40.0198ZM100.245 40.4687C100.621 40.076 101.238 40.0761 101.615 40.4688C101.982 40.8521 101.982 41.4654 101.615 41.8487L95.7251 47.99C95.3484 48.3828 94.7316 48.3828 94.3549 47.99L92.028 45.5637C91.6605 45.1804 91.6605 44.5671 92.028 44.1838C92.4047 43.791 93.0216 43.791 93.3983 44.1838L95.0374 45.893L100.245 40.4687Z" fill="#E372FF"/>
<path d="M107.752 44.0674C107.752 42.8148 108.767 41.7993 110.02 41.7993H127.321C128.574 41.7993 129.59 42.8148 129.59 44.0674C129.59 45.3201 128.574 46.3355 127.321 46.3355H110.02C108.767 46.3355 107.752 45.3201 107.752 44.0674Z" fill="#E372FF"/>
<path d="M91.1035 58.5537C91.1035 57.0349 92.3347 55.8037 93.8535 55.8037H126.839C128.358 55.8037 129.589 57.0349 129.589 58.5537V65.6251C129.589 67.1439 128.358 68.3751 126.839 68.3751H93.8535C92.3347 68.3751 91.1035 67.1439 91.1035 65.6251V58.5537Z" fill="#FCF0FF"/>
<path d="M112.371 50.2245L121.34 59.1935L147.613 32.9203C148.12 32.4126 148.405 31.7245 148.405 31.0071C148.405 30.2897 148.12 29.6016 147.613 29.0939L142.471 23.9538C142.22 23.7022 141.921 23.5026 141.593 23.3664C141.265 23.2303 140.913 23.1602 140.557 23.1602C140.202 23.1602 139.85 23.2303 139.522 23.3664C139.194 23.5026 138.895 23.7022 138.644 23.9538L112.371 50.2245Z" fill="#A533FF"/>
<path d="M109.477 57.1161L112.372 50.2236L121.338 59.1926L114.015 61.8564C113.663 60.7759 113.073 59.7886 112.287 58.9678C111.501 58.1471 110.541 57.5141 109.477 57.1161Z" fill="#FFC38C"/>
<path d="M106.905 63.2336L109.476 57.1162C110.541 57.5143 111.501 58.1472 112.287 58.968C113.073 59.7887 113.663 60.7761 114.014 61.8566L107.761 64.1305C107.637 64.175 107.503 64.1826 107.375 64.1525C107.248 64.1223 107.131 64.0557 107.041 63.9607C106.95 63.8657 106.889 63.7464 106.865 63.6173C106.841 63.4882 106.855 63.3549 106.905 63.2336Z" fill="#002C6D"/>
</svg>